# xmcd
#
# Track frame offsets:
#	150
#	11475
#	23223
#	36430
#	48980
#	62480
#	76780
#	89910
#	104377
#	115916
#	127997
#	140895
#	154027
#	167221
#	182318
#	200681
#	214858
#	228010
#	239116
#	252577
#	266368
#	279780
#	291973
#
# Disc length: 4054
#
# Revision: 1
# Processed by: cddbd v1.5.1PL0 Copyright (c) Steve Scherf et al.
# Submitted via: ExactAudioCopy v0.90b4
# Normalized: r0:DSETVAR1,TDELIM( - )
#
DISCID=4a0fd417
DTITLE=Various Artist - Chicago in Mind
DYEAR=2000
DGENRE=Blues
TTITLE0=Ida Cox - Chicago Bound Blues
TTITLE1=Priscilla Stewart - Mecca Flats Blues
TTITLE2=Jimmy Blythe - Chicago Stomp
TTITLE3=Papa Charlie Jackson - Maxwell Street Blues
TTITLE4=Charles 'Cow Cow' Davenport - State Street Jive
TTITLE5=Tampa Red - Chicago Moan Blues
TTITLE6=Big Bill Broonzy - New Shake 'em on Down
TTITLE7=Sparks Brothers - Chicago's Too Much for Me
TTITLE8=Washboard Sam - Down at the Badman's Hall
TTITLE9=Sonny Boy Williamson - Rub a Dub
TTITLE10=Sunnyland Slim - Johnson Machine Gun
TTITLE11=Arnold 'Doc' Wiley - Windy City
TTITLE12=Big Maceo - Chicago Breakdown
TTITLE13=George Noble - Dozing Blues
TTITLE14=Albert Ammons - Chicago in Mind
TTITLE15=Baby Face Leroy - Take a Little Walk With Me
TTITLE16=Little Johnny Jones - Big Town Playboy
TTITLE17=Snooky Prior - Boogy Fool
TTITLE18=Robert Jr Lockwood - I'm Gonna Train My Baby
TTITLE19=Robert Nighthawk - Sweet Black Angel
TTITLE20=Tommy McClennan - Blue Bird Blues
TTITLE21=Little Walter - Oranelle Blues
TTITLE22=Muddy Waters - I Can't Be Satisfied
EXTD=
EXTT0=
EXTT1=
EXTT2=
EXTT3=
EXTT4=
EXTT5=
EXTT6=
EXTT7=
EXTT8=
EXTT9=
EXTT10=
EXTT11=
EXTT12=
EXTT13=
EXTT14=
EXTT15=
EXTT16=
EXTT17=
EXTT18=
EXTT19=
EXTT20=
EXTT21=
EXTT22=
PLAYORDER=
